<?xml version="1.0" encoding="iso-8859-1"?>
<!-- Generator: Adobe Illustrator 19.0.0, SVG Export Plug-In . SVG Version: 6.00 Build 0)  -->
<svg version="1.1" id="Capa_1" xmlns="http://www.w3.org/2000/svg" xmlns:xlink="http://www.w3.org/1999/xlink" x="0px" y="0px"
	 viewBox="0 0 407.271 407.271" style="enable-background:new 0 0 407.271 407.271;" xml:space="preserve">
<path id="XMLID_691_" d="M345.749,226.56V398.27c0,4.971-4.029,9-9,9H70.524c-4.971,0-9-4.029-9-9V226.56c0-4.971,4.029-9,9-9
	s9,4.029,9,9V389.27h248.225V226.56c0-4.971,4.029-9,9-9S345.749,221.589,345.749,226.56z M407.271,57.983v131.465
	c0,4.97-4.028,8.999-8.998,9l-95.075,0.018c0,0-4.563,0.169-6.464-0.955c-1.955-1.156-4.407-2.827-4.635-7.384
	c-0.09-1.794-0.146-3.679-0.146-3.679v-65.913c0-4.971,4.029-9,9-9s9,4.029,9,9v59.929l79.318-0.015V62.964l-71.231-44.64h-32.416
	v9.073c0,31.793-25.865,57.659-57.657,57.659h-48.662c-31.791,0-57.655-25.866-57.655-57.659v-9.396H89.233L18,62.642v117.485
	l79.322,0.015v-59.604c0-4.971,4.029-9,9-9s9,4.029,9,9v68.606c0,0,0,0,0,0s0.147,8.659-9,9c-0.001,0-0.001,0-0.002,0l-97.322-0.018
	c-4.97-0.001-8.998-4.03-8.998-9V57.66c0-3.099,1.595-5.98,4.221-7.626L81.867,1.375c1.433-0.897,3.089-1.374,4.779-1.374
	l233.98,0.323c1.69,0,3.347,0.476,4.779,1.374l77.645,48.659C405.677,52.003,407.271,54.884,407.271,57.983z M267.624,18.002
	H139.649v9.396c0,21.868,17.789,39.659,39.655,39.659h48.662c21.867,0,39.657-17.791,39.657-39.659V18.002z"/>
<g>
</g>
<g>
</g>
<g>
</g>
<g>
</g>
<g>
</g>
<g>
</g>
<g>
</g>
<g>
</g>
<g>
</g>
<g>
</g>
<g>
</g>
<g>
</g>
<g>
</g>
<g>
</g>
<g>
</g>
</svg>
